<svg viewBox="112.64 210.944 796.672 636.928" version="1.1" xmlns="http://www.w3.org/2000/svg" style="max-height: 500px" width="796.672" height="636.928">
<g stroke-linecap="butt" fill="none" stroke-width="2.00">
<path d="M 209.82 804.19&#10;  Q 187.35 806.02 165.26 808.27&#10;  Q 149.17 809.91 135.37 813.01&#10;  C 133.93 813.34 131.89 814.21 130.82 815.25&#10;  Q 128.95 817.07 131.19 818.54&#10;  Q 133.25 819.90 134.25 820.13&#10;  Q 151.59 824.14 168.97 825.64&#10;  Q 187.16 827.21 206.79 828.60&#10;  Q 210.31 828.85 213.34 829.19&#10;  Q 216.52 829.55 219.89 829.69&#10;  C 223.47 829.83 227.17 830.37 230.72 830.61&#10;  Q 238.97 831.19 247.41 831.75&#10;  Q 255.43 832.29 264.15 832.54&#10;  Q 286.22 833.19 306.19 834.14&#10;  Q 315.83 834.60 326.01 834.68&#10;  C 342.20 834.80 358.50 835.68 374.74 835.71&#10;  C 395.02 835.74 415.23 836.46 435.47 836.48&#10;  Q 467.42 836.51 499.70 836.72&#10;  Q 509.43 836.79 519.74 836.72&#10;  Q 551.76 836.51 583.79 836.42" stroke="#d1d1d1"/>
<path d="M 583.79 836.42&#10;  Q 626.39 835.96 669.00 835.22&#10;  C 695.49 834.76 722.24 833.57 747.25 832.32&#10;  Q 751.83 832.09 756.06 832.16&#10;  C 758.52 832.19 760.83 831.47 763.25 831.39&#10;  Q 775.52 830.98 788.25 830.05&#10;  Q 808.34 828.58 828.01 827.01&#10;  Q 831.66 826.72 834.98 826.44&#10;  Q 851.53 825.05 867.74 823.09&#10;  Q 874.54 822.26 881.07 821.02&#10;  C 883.27 820.60 890.61 818.37 886.99 815.09&#10;  C 885.81 814.02 882.53 812.86 880.70 812.48&#10;  Q 870.49 810.39 866.72 809.90&#10;  Q 841.30 806.62 812.49 805.13&#10;  Q 806.06 804.80 799.42 804.51" stroke="#d1d1d1"/>
<path d="M 799.42 804.51&#10;  Q 791.81 801.83 780.61 800.91&#10;  Q 747.21 798.16 725.82 797.31&#10;  C 723.05 797.20 720.23 796.64 717.55 796.90&#10;  Q 716.64 796.99 717.42 796.53&#10;  C 719.39 795.36 721.36 794.81 723.35 793.74&#10;  Q 727.03 791.77 730.32 789.86&#10;  C 745.07 781.30 757.59 767.72 766.88 753.55&#10;  Q 784.90 726.03 786.36 693.04&#10;  Q 786.87 681.52 786.46 659.39&#10;  Q 786.45 658.80 785.89 659.00&#10;  Q 747.97 672.07 708.11 670.70&#10;  C 698.54 670.37 689.07 670.38 679.56 668.93&#10;  C 676.78 668.50 673.95 668.65 671.26 667.94&#10;  Q 668.24 667.14 665.18 666.67&#10;  Q 655.98 665.24 646.85 662.76" stroke="#7f8380"/>
<path d="M 646.85 662.76&#10;  Q 651.68 661.55 655.69 659.18&#10;  Q 670.23 650.58 683.11 641.77" stroke="#d1d1d1"/>
<path d="M 683.11 641.77&#10;  Q 693.00 644.03 703.25 644.23&#10;  Q 718.64 644.53 722.75 644.24&#10;  Q 755.44 641.93 789.85 627.25&#10;  Q 803.93 621.24 819.47 609.25&#10;  Q 830.17 600.99 839.29 590.49&#10;  Q 854.63 572.84 862.97 554.32&#10;  Q 870.65 537.27 874.17 520.98&#10;  Q 876.03 512.37 877.56 501.81&#10;  Q 878.93 492.29 878.89 482.45&#10;  Q 878.83 468.13 879.05 454.62&#10;  Q 879.13 449.96 878.54 446.87&#10;  Q 876.92 438.40 868.66 434.74&#10;  Q 865.23 433.23 855.18 433.49&#10;  Q 846.41 433.73 837.22 433.50&#10;  C 831.97 433.37 826.71 434.22 822.72 437.79&#10;  Q 817.84 442.17 817.81 448.75&#10;  Q 817.73 471.77 817.16 491.13&#10;  Q 817.05 494.73 815.73 502.31" stroke="#7f8380"/>
<path d="M 815.73 502.31&#10;  Q 813.79 509.21 812.11 513.61&#10;  C 808.78 522.33 804.02 530.37 797.74 537.69&#10;  Q 772.27 567.39 733.25 576.22&#10;  Q 717.98 579.67 708.45 580.07&#10;  Q 691.14 580.78 666.86 579.58&#10;  Q 663.83 579.43 660.85 578.85&#10;  C 656.74 578.05 652.43 578.02 648.22 577.15&#10;  C 646.14 576.72 643.10 576.79 640.49 575.86&#10;  Q 638.69 575.23 637.24 576.38" stroke="#d1d1d1"/>
<path d="M 637.24 576.38&#10;  Q 634.53 573.20 632.50 569.47&#10;  Q 629.32 563.63 626.21 558.00&#10;  C 622.25 550.82 615.40 547.06 607.25 549.57&#10;  Q 594.57 553.47 593.35 568.38" stroke="#7f8380"/>
<path d="M 593.35 568.38&#10;  Q 593.12 569.27 590.50 567.93&#10;  Q 588.97 567.14 587.92 566.77&#10;  C 571.09 560.75 553.84 553.03 539.47 542.82&#10;  C 534.28 539.13 528.90 535.54 524.08 531.45&#10;  Q 510.31 519.77 499.05 506.59&#10;  Q 474.60 477.98 463.78 440.96&#10;  Q 461.12 431.84 459.81 421.52&#10;  Q 457.97 407.04 458.50 396.01&#10;  Q 458.76 390.43 461.23 380.86" stroke="#d1d1d1"/>
<path d="M 461.23 380.86&#10;  L 464.04 375.46&#10;  Q 464.29 374.97 464.85 375.01&#10;  C 467.54 375.18 470.30 375.70 472.89 374.58&#10;  Q 478.13 372.31 480.92 366.85&#10;  Q 482.79 363.17 481.73 358.73&#10;  Q 479.29 348.52 468.74 345.41&#10;  Q 451.86 340.45 438.03 339.08&#10;  Q 428.67 338.15 412.26 338.62&#10;  Q 409.96 338.68 407.80 339.09&#10;  C 404.81 339.65 401.85 339.71 398.77 340.30&#10;  Q 380.33 343.87 363.27 352.55&#10;  Q 354.19 357.18 346.74 363.11&#10;  Q 314.43 388.84 306.84 428.59&#10;  Q 305.29 436.70 305.00 443.69&#10;  Q 304.70 451.13 305.10 458.19&#10;  C 306.52 483.32 317.79 507.25 334.16 526.69&#10;  C 340.13 533.79 346.67 540.79 353.92 546.34&#10;  C 364.01 554.07 375.27 561.04 387.28 565.76&#10;  Q 395.44 568.96 403.80 571.35&#10;  C 412.47 573.83 418.41 577.15 418.98 586.50" stroke="#7f8380"/>
<path d="M 418.98 586.50&#10;  Q 408.96 584.63 395.45 580.06&#10;  C 376.15 573.52 359.26 564.86 344.28 552.34&#10;  Q 329.07 539.62 319.69 527.94&#10;  Q 307.05 512.21 297.94 494.05&#10;  Q 294.40 486.99 291.33 478.21&#10;  Q 287.88 468.33 286.37 460.99&#10;  Q 283.56 447.35 283.26 437.50&#10;  Q 283.08 431.24 283.73 413.55" stroke="#d1d1d1"/>
<path d="M 283.73 413.55&#10;  Q 287.83 395.32 297.38 379.33&#10;  Q 303.89 368.46 306.56 365.05&#10;  Q 339.23 323.36 391.30 313.14&#10;  Q 393.54 312.70 395.72 312.51&#10;  C 399.47 312.19 403.08 311.70 406.86 311.68&#10;  Q 415.32 311.64 423.57 311.79&#10;  C 428.27 311.87 433.60 308.63 433.88 303.53&#10;  C 434.23 297.01 429.34 291.29 422.97 291.18&#10;  Q 409.43 290.96 394.84 291.26&#10;  C 392.80 291.30 390.79 291.70 388.74 291.81&#10;  Q 383.66 292.08 377.82 293.57&#10;  C 376.87 293.81 375.94 294.53 374.96 294.61&#10;  Q 373.91 294.69 374.83 294.18&#10;  Q 376.47 293.27 378.14 292.47&#10;  Q 405.50 279.27 433.93 270.91&#10;  Q 463.47 262.23 493.96 260.84&#10;  C 511.44 260.05 529.50 260.51 546.02 263.54&#10;  Q 568.55 267.67 584.51 272.97&#10;  Q 653.38 295.83 701.56 352.14&#10;  Q 707.84 359.47 713.74 368.01&#10;  Q 741.26 407.83 750.35 452.48&#10;  Q 753.75 469.20 755.44 490.97&#10;  Q 755.81 495.78 755.17 512.69&#10;  C 754.97 518.02 755.93 522.37 761.23 524.17&#10;  C 767.46 526.30 773.80 519.02 776.66 514.50&#10;  C 783.14 504.24 786.32 490.98 786.36 478.69&#10;  Q 786.58 408.23 786.46 338.78&#10;  C 786.40 302.10 765.56 266.31 735.46 246.15&#10;  Q 716.18 233.23 689.95 228.44&#10;  Q 683.06 227.19 670.76 227.16&#10;  Q 498.07 226.81 340.25 227.13&#10;  C 332.85 227.14 325.31 226.93 318.07 228.03&#10;  Q 300.54 230.68 283.79 237.44&#10;  Q 270.13 242.97 256.09 254.35&#10;  Q 226.88 278.03 216.93 312.34&#10;  Q 214.82 319.63 213.32 329.59&#10;  Q 212.17 337.20 212.16 346.67&#10;  Q 212.06 506.93 212.08 666.69&#10;  A 0.69 0.68 -83.6 0 1 211.25 667.36&#10;  Q 197.91 664.44 191.22 654.28&#10;  Q 189.93 652.31 189.56 650.16&#10;  Q 189.46 649.62 189.84 649.22&#10;  Q 192.35 646.58 193.28 643.51&#10;  Q 197.56 629.42 189.82 616.73&#10;  Q 180.60 601.59 161.52 591.90&#10;  Q 159.28 590.76 157.05 591.23&#10;  Q 156.52 591.35 156.52 591.89&#10;  Q 156.58 598.76 154.96 605.50&#10;  Q 152.61 615.25 150.62 623.81&#10;  Q 149.68 627.82 149.66 634.01&#10;  Q 149.62 643.47 155.99 650.18&#10;  Q 161.23 655.69 167.56 656.23&#10;  A 0.67 0.65 86.4 0 1 168.15 656.76&#10;  Q 168.69 659.49 169.88 662.16&#10;  Q 178.37 681.12 198.44 690.53&#10;  Q 206.53 694.32 211.97 694.57&#10;  Q 212.70 694.60 212.73 695.34&#10;  C 213.08 705.08 216.11 715.56 219.43 724.78&#10;  Q 230.90 756.66 256.50 778.15&#10;  C 265.50 785.70 276.25 791.74 287.08 796.32&#10;  Q 289.03 797.15 286.91 797.16&#10;  Q 285.82 797.17 284.77 797.20&#10;  Q 259.32 797.96 229.50 800.77&#10;  Q 218.27 801.83 209.82 804.19" stroke="#7f8380"/>
<path d="M 283.73 413.55&#10;  Q 281.97 418.25 281.55 420.50&#10;  Q 278.71 435.70 278.59 452.00&#10;  Q 278.48 467.76 282.17 481.83&#10;  C 283.96 488.63 285.60 495.10 288.40 501.61&#10;  Q 295.96 519.21 306.19 532.94&#10;  Q 314.99 544.76 318.85 549.01&#10;  Q 347.38 580.45 387.73 593.54&#10;  Q 395.30 596.00 403.02 597.93&#10;  Q 409.83 599.62 414.74 595.50&#10;  Q 418.87 592.03 418.98 586.50" stroke="#525652"/>
<path d="M 461.23 380.86&#10;  Q 446.42 403.98 441.46 429.50&#10;  Q 437.07 452.13 439.78 477.36&#10;  Q 440.77 486.55 443.56 496.74&#10;  C 449.64 519.02 459.66 537.28 472.45 557.04&#10;  Q 481.34 570.76 478.70 585.86&#10;  C 474.25 611.27 451.05 627.60 427.03 630.81&#10;  Q 410.87 632.98 399.30 630.91&#10;  Q 384.39 628.25 377.16 625.82&#10;  Q 332.11 610.73 298.96 575.70&#10;  C 296.50 573.10 294.32 570.17 291.70 567.54" stroke="#525652"/>
<path d="M 291.70 567.54&#10;  Q 282.84 556.78 277.69 548.79&#10;  Q 270.55 537.73 264.41 526.96&#10;  A 0.29 0.29 0.0 0 0 263.90 526.98&#10;  Q 259.77 535.59 256.49 545.16&#10;  Q 248.09 569.63 244.83 594.29&#10;  Q 243.72 602.74 243.53 614.19&#10;  Q 243.22 632.51 243.54 643.00&#10;  Q 244.18 664.42 251.40 688.37" stroke="#7f8380"/>
<path d="M 251.40 688.37&#10;  Q 254.58 699.88 259.97 711.56&#10;  C 267.02 726.84 276.60 739.33 288.20 751.09&#10;  Q 305.75 768.90 329.64 779.31&#10;  Q 338.13 783.01 346.64 784.61&#10;  Q 352.41 785.69 364.42 785.66&#10;  Q 400.44 785.57 436.13 785.74" stroke="#525652"/>
<path d="M 436.13 785.74&#10;  L 467.23 785.76&#10;  A 0.51 0.51 0.0 0 0 467.75 785.25&#10;  Q 467.76 777.43 467.81 768.21&#10;  Q 467.87 759.01 465.83 750.84&#10;  Q 462.03 735.63 450.66 722.41&#10;  Q 434.71 703.86 410.87 699.11&#10;  Q 398.38 696.62 386.74 698.05&#10;  Q 373.02 699.74 360.02 706.83" stroke="#7f8380"/>
<path d="M 360.02 706.83&#10;  C 356.67 706.94 352.85 707.40 350.13 705.55&#10;  C 345.38 702.33 341.90 697.30 342.99 691.33&#10;  Q 344.13 685.05 349.65 681.10&#10;  Q 367.88 668.07 391.71 666.13&#10;  C 415.32 664.20 440.75 670.95 460.17 685.57&#10;  Q 486.67 705.53 496.69 738.02&#10;  Q 500.84 751.47 501.07 763.35&#10;  Q 501.27 773.47 500.96 785.08&#10;  A 0.69 0.69 0.0 0 0 501.65 785.79&#10;  L 530.87 785.74" stroke="#525652"/>
<path d="M 530.87 785.74&#10;  L 565.68 785.72&#10;  Q 566.18 785.72 566.18 785.22&#10;  L 566.40 701.48" stroke="#7f8380"/>
<path d="M 566.40 701.48&#10;  L 566.52 680.39&#10;  A 0.51 0.51 0.0 0 1 566.93 679.90&#10;  Q 583.94 676.78 599.44 671.43&#10;  Q 601.28 670.79 599.48 670.04&#10;  Q 587.78 665.21 575.93 659.59&#10;  C 571.05 657.27 566.86 652.91 567.10 647.18&#10;  C 567.31 641.92 570.71 637.11 576.00 636.49&#10;  C 579.87 636.04 582.96 638.44 586.26 639.97&#10;  Q 600.61 646.64 618.74 654.09&#10;  Q 626.00 657.07 646.85 662.76" stroke="#525652"/>
<path d="M 799.42 804.51&#10;  Q 803.51 808.99 799.56 812.08&#10;  Q 796.37 814.58 791.25 815.26&#10;  Q 784.69 816.13 769.52 816.93&#10;  Q 763.98 817.22 758.50 817.57&#10;  Q 750.63 818.09 747.48 818.17&#10;  Q 740.90 818.33 734.82 818.73&#10;  C 723.89 819.45 712.89 819.83 702.01 820.24&#10;  Q 693.91 820.55 681.81 820.37&#10;  C 679.37 820.34 676.88 820.96 674.41 820.96&#10;  Q 613.08 820.94 551.74 821.24" stroke="#525652"/>
<path d="M 551.74 821.24&#10;  Q 470.54 821.03 389.32 820.99&#10;  C 378.11 820.98 367.04 820.68 356.05 820.70&#10;  Q 348.46 820.72 338.00 820.27&#10;  Q 329.13 819.89 319.92 820.28&#10;  C 318.05 820.35 316.14 819.88 314.25 819.90&#10;  C 307.58 819.99 301.12 819.32 294.49 819.20&#10;  Q 264.40 818.61 234.86 816.73&#10;  Q 225.20 816.11 215.26 814.89&#10;  Q 212.54 814.55 210.05 812.47&#10;  Q 205.67 808.81 209.82 804.19" stroke="#525652"/>
<path d="M 551.74 821.24&#10;  Q 552.64 821.51 553.56 821.71&#10;  Q 553.72 821.75 553.68 821.91&#10;  Q 553.65 822.05 553.45 822.11&#10;  Q 553.18 822.20 553.07 821.94&#10;  Q 552.96 821.66 552.73 821.91&#10;  Q 552.35 822.34 552.91 822.44&#10;  Q 558.33 823.45 563.30 822.98&#10;  Q 566.72 822.65 570.35 822.75&#10;  Q 570.42 822.75 570.46 822.69&#10;  Q 570.49 822.64 570.45 822.60&#10;  Q 570.17 822.33 570.56 822.32&#10;  Q 572.89 822.29 574.41 822.89&#10;  A 2.49 2.48 -79.6 0 1 576.00 825.21&#10;  L 576.00 831.50&#10;  Q 576.00 832.00 576.50 832.00&#10;  L 577.60 832.00&#10;  Q 578.16 832.00 578.29 832.54&#10;  Q 578.57 833.64 578.04 834.49&#10;  Q 577.75 834.95 578.25 835.16&#10;  Q 579.16 835.56 580.15 835.67&#10;  Q 580.31 835.69 580.42 835.80&#10;  Q 580.48 835.85 580.42 835.91&#10;  Q 580.12 836.23 580.56 836.19&#10;  Q 582.28 836.04 583.79 836.42" stroke="#a3a3a3"/>
<path d="M 593.35 568.38&#10;  Q 593.21 573.70 595.96 579.50&#10;  C 609.18 607.43 632.16 625.90 661.25 635.78&#10;  Q 674.53 640.30 683.11 641.77" stroke="#525652"/>
<path d="M 566.40 701.48&#10;  Q 544.20 689.84 531.46 668.96&#10;  Q 530.88 668.01 530.88 669.12&#10;  L 530.87 785.74" stroke="#d1d1d1"/>
<path d="M 360.02 706.83&#10;  Q 350.69 713.50 348.42 715.68&#10;  Q 337.77 725.94 333.38 740.30&#10;  Q 332.85 742.03 332.70 743.88&#10;  A 0.32 0.32 0.0 0 0 333.22 744.15&#10;  C 344.43 735.10 358.54 728.31 372.99 727.17&#10;  C 384.89 726.24 397.88 727.60 408.06 733.36&#10;  C 422.19 741.36 432.46 754.51 435.22 770.57&#10;  Q 436.50 778.05 436.13 785.74" stroke="#d1d1d1"/>
<path d="M 251.40 688.37&#10;  Q 251.91 682.27 251.80 672.25&#10;  Q 251.65 659.17 254.51 644.99&#10;  Q 256.09 637.19 259.84 626.02&#10;  Q 263.84 614.15 266.81 607.32&#10;  Q 275.68 586.95 291.70 567.54" stroke="#d1d1d1"/>
<path d="M 637.24 576.38&#10;  Q 643.93 585.38 654.45 591.80&#10;  Q 668.35 600.30 681.96 603.79&#10;  Q 692.93 606.60 699.36 607.18&#10;  Q 706.28 607.80 714.18 607.71&#10;  Q 722.53 607.61 728.79 606.51&#10;  C 747.02 603.28 765.33 595.22 778.52 582.29&#10;  Q 801.34 559.92 810.90 528.71&#10;  Q 813.80 519.25 815.73 502.31" stroke="#525652"/>
<path d="M 651.30 505.68&#10;  C 667.29 498.49 680.65 481.48 684.88 463.96&#10;  C 685.71 460.56 686.51 457.13 686.77 453.68&#10;  Q 688.34 432.34 677.23 414.40&#10;  C 668.69 400.63 654.23 390.61 638.92 387.09&#10;  C 620.64 382.89 600.15 386.37 585.02 397.55&#10;  C 565.81 411.73 557.35 433.77 560.23 457.20&#10;  Q 562.05 472.00 571.15 484.90&#10;  C 589.63 511.12 622.37 518.69 651.30 505.68" stroke="#7f8380"/>
<path d="M 646.86 689.17&#10;  Q 625.16 707.97 600.13 717.57&#10;  A 1.72 1.72 0.0 0 0 599.02 719.18&#10;  L 598.92 785.06&#10;  Q 598.92 785.74 599.60 785.74&#10;  L 616.61 785.76" stroke="#525652"/>
<path d="M 616.61 785.76&#10;  L 649.78 785.72&#10;  Q 650.28 785.72 650.28 785.22&#10;  L 650.24 687.47&#10;  Q 650.24 683.49 648.48 687.06&#10;  Q 647.66 688.73 646.86 689.17" stroke="#7f8380"/>
<path d="M 616.61 785.76&#10;  Q 616.19 764.26 616.36 742.75&#10;  Q 616.39 738.43 617.53 735.75&#10;  Q 619.94 730.13 625.10 722.85&#10;  Q 636.39 706.93 646.86 689.17" stroke="#d1d1d1"/>
<path d="M 667.88 432.03&#10;  A 22.53 22.53 0.0 0 0 645.35 409.50&#10;  A 22.53 22.53 0.0 0 0 622.82 432.03&#10;  A 22.53 22.53 0.0 0 0 645.35 454.56&#10;  A 22.53 22.53 0.0 0 0 667.88 432.03" stroke="#7f8380"/>
</g>
<path d="M 0.00 0.00&#10;  L 1024.00 0.00&#10;  L 1024.00 1024.00&#10;  L 0.00 1024.00&#10;  L 0.00 0.00&#10;  Z&#10;  M 209.82 804.19&#10;  Q 187.35 806.02 165.26 808.27&#10;  Q 149.17 809.91 135.37 813.01&#10;  C 133.93 813.34 131.89 814.21 130.82 815.25&#10;  Q 128.95 817.07 131.19 818.54&#10;  Q 133.25 819.90 134.25 820.13&#10;  Q 151.59 824.14 168.97 825.64&#10;  Q 187.16 827.21 206.79 828.60&#10;  Q 210.31 828.85 213.34 829.19&#10;  Q 216.52 829.55 219.89 829.69&#10;  C 223.47 829.83 227.17 830.37 230.72 830.61&#10;  Q 238.97 831.19 247.41 831.75&#10;  Q 255.43 832.29 264.15 832.54&#10;  Q 286.22 833.19 306.19 834.14&#10;  Q 315.83 834.60 326.01 834.68&#10;  C 342.20 834.80 358.50 835.68 374.74 835.71&#10;  C 395.02 835.74 415.23 836.46 435.47 836.48&#10;  Q 467.42 836.51 499.70 836.72&#10;  Q 509.43 836.79 519.74 836.72&#10;  Q 551.76 836.51 583.79 836.42&#10;  Q 626.39 835.96 669.00 835.22&#10;  C 695.49 834.76 722.24 833.57 747.25 832.32&#10;  Q 751.83 832.09 756.06 832.16&#10;  C 758.52 832.19 760.83 831.47 763.25 831.39&#10;  Q 775.52 830.98 788.25 830.05&#10;  Q 808.34 828.58 828.01 827.01&#10;  Q 831.66 826.72 834.98 826.44&#10;  Q 851.53 825.05 867.74 823.09&#10;  Q 874.54 822.26 881.07 821.02&#10;  C 883.27 820.60 890.61 818.37 886.99 815.09&#10;  C 885.81 814.02 882.53 812.86 880.70 812.48&#10;  Q 870.49 810.39 866.72 809.90&#10;  Q 841.30 806.62 812.49 805.13&#10;  Q 806.06 804.80 799.42 804.51&#10;  Q 791.81 801.83 780.61 800.91&#10;  Q 747.21 798.16 725.82 797.31&#10;  C 723.05 797.20 720.23 796.64 717.55 796.90&#10;  Q 716.64 796.99 717.42 796.53&#10;  C 719.39 795.36 721.36 794.81 723.35 793.74&#10;  Q 727.03 791.77 730.32 789.86&#10;  C 745.07 781.30 757.59 767.72 766.88 753.55&#10;  Q 784.90 726.03 786.36 693.04&#10;  Q 786.87 681.52 786.46 659.39&#10;  Q 786.45 658.80 785.89 659.00&#10;  Q 747.97 672.07 708.11 670.70&#10;  C 698.54 670.37 689.07 670.38 679.56 668.93&#10;  C 676.78 668.50 673.95 668.65 671.26 667.94&#10;  Q 668.24 667.14 665.18 666.67&#10;  Q 655.98 665.24 646.85 662.76&#10;  Q 651.68 661.55 655.69 659.18&#10;  Q 670.23 650.58 683.11 641.77&#10;  Q 693.00 644.03 703.25 644.23&#10;  Q 718.64 644.53 722.75 644.24&#10;  Q 755.44 641.93 789.85 627.25&#10;  Q 803.93 621.24 819.47 609.25&#10;  Q 830.17 600.99 839.29 590.49&#10;  Q 854.63 572.84 862.97 554.32&#10;  Q 870.65 537.27 874.17 520.98&#10;  Q 876.03 512.37 877.56 501.81&#10;  Q 878.93 492.29 878.89 482.45&#10;  Q 878.83 468.13 879.05 454.62&#10;  Q 879.13 449.96 878.54 446.87&#10;  Q 876.92 438.40 868.66 434.74&#10;  Q 865.23 433.23 855.18 433.49&#10;  Q 846.41 433.73 837.22 433.50&#10;  C 831.97 433.37 826.71 434.22 822.72 437.79&#10;  Q 817.84 442.17 817.81 448.75&#10;  Q 817.73 471.77 817.16 491.13&#10;  Q 817.05 494.73 815.73 502.31&#10;  Q 813.79 509.21 812.11 513.61&#10;  C 808.78 522.33 804.02 530.37 797.74 537.69&#10;  Q 772.27 567.39 733.25 576.22&#10;  Q 717.98 579.67 708.45 580.07&#10;  Q 691.14 580.78 666.86 579.58&#10;  Q 663.83 579.43 660.85 578.85&#10;  C 656.74 578.05 652.43 578.02 648.22 577.15&#10;  C 646.14 576.72 643.10 576.79 640.49 575.86&#10;  Q 638.69 575.23 637.24 576.38&#10;  Q 634.53 573.20 632.50 569.47&#10;  Q 629.32 563.63 626.21 558.00&#10;  C 622.25 550.82 615.40 547.06 607.25 549.57&#10;  Q 594.57 553.47 593.35 568.38&#10;  Q 593.12 569.27 590.50 567.93&#10;  Q 588.97 567.14 587.92 566.77&#10;  C 571.09 560.75 553.84 553.03 539.47 542.82&#10;  C 534.28 539.13 528.90 535.54 524.08 531.45&#10;  Q 510.31 519.77 499.05 506.59&#10;  Q 474.60 477.98 463.78 440.96&#10;  Q 461.12 431.84 459.81 421.52&#10;  Q 457.97 407.04 458.50 396.01&#10;  Q 458.76 390.43 461.23 380.86&#10;  L 464.04 375.46&#10;  Q 464.29 374.97 464.85 375.01&#10;  C 467.54 375.18 470.30 375.70 472.89 374.58&#10;  Q 478.13 372.31 480.92 366.85&#10;  Q 482.79 363.17 481.73 358.73&#10;  Q 479.29 348.52 468.74 345.41&#10;  Q 451.86 340.45 438.03 339.08&#10;  Q 428.67 338.15 412.26 338.62&#10;  Q 409.96 338.68 407.80 339.09&#10;  C 404.81 339.65 401.85 339.71 398.77 340.30&#10;  Q 380.33 343.87 363.27 352.55&#10;  Q 354.19 357.18 346.74 363.11&#10;  Q 314.43 388.84 306.84 428.59&#10;  Q 305.29 436.70 305.00 443.69&#10;  Q 304.70 451.13 305.10 458.19&#10;  C 306.52 483.32 317.79 507.25 334.16 526.69&#10;  C 340.13 533.79 346.67 540.79 353.92 546.34&#10;  C 364.01 554.07 375.27 561.04 387.28 565.76&#10;  Q 395.44 568.96 403.80 571.35&#10;  C 412.47 573.83 418.41 577.15 418.98 586.50&#10;  Q 408.96 584.63 395.45 580.06&#10;  C 376.15 573.52 359.26 564.86 344.28 552.34&#10;  Q 329.07 539.62 319.69 527.94&#10;  Q 307.05 512.21 297.94 494.05&#10;  Q 294.40 486.99 291.33 478.21&#10;  Q 287.88 468.33 286.37 460.99&#10;  Q 283.56 447.35 283.26 437.50&#10;  Q 283.08 431.24 283.73 413.55&#10;  Q 287.83 395.32 297.38 379.33&#10;  Q 303.89 368.46 306.56 365.05&#10;  Q 339.23 323.36 391.30 313.14&#10;  Q 393.54 312.70 395.72 312.51&#10;  C 399.47 312.19 403.08 311.70 406.86 311.68&#10;  Q 415.32 311.64 423.57 311.79&#10;  C 428.27 311.87 433.60 308.63 433.88 303.53&#10;  C 434.23 297.01 429.34 291.29 422.97 291.18&#10;  Q 409.43 290.96 394.84 291.26&#10;  C 392.80 291.30 390.79 291.70 388.74 291.81&#10;  Q 383.66 292.08 377.82 293.57&#10;  C 376.87 293.81 375.94 294.53 374.96 294.61&#10;  Q 373.91 294.69 374.83 294.18&#10;  Q 376.47 293.27 378.14 292.47&#10;  Q 405.50 279.27 433.93 270.91&#10;  Q 463.47 262.23 493.96 260.84&#10;  C 511.44 260.05 529.50 260.51 546.02 263.54&#10;  Q 568.55 267.67 584.51 272.97&#10;  Q 653.38 295.83 701.56 352.14&#10;  Q 707.84 359.47 713.74 368.01&#10;  Q 741.26 407.83 750.35 452.48&#10;  Q 753.75 469.20 755.44 490.97&#10;  Q 755.81 495.78 755.17 512.69&#10;  C 754.97 518.02 755.93 522.37 761.23 524.17&#10;  C 767.46 526.30 773.80 519.02 776.66 514.50&#10;  C 783.14 504.24 786.32 490.98 786.36 478.69&#10;  Q 786.58 408.23 786.46 338.78&#10;  C 786.40 302.10 765.56 266.31 735.46 246.15&#10;  Q 716.18 233.23 689.95 228.44&#10;  Q 683.06 227.19 670.76 227.16&#10;  Q 498.07 226.81 340.25 227.13&#10;  C 332.85 227.14 325.31 226.93 318.07 228.03&#10;  Q 300.54 230.68 283.79 237.44&#10;  Q 270.13 242.97 256.09 254.35&#10;  Q 226.88 278.03 216.93 312.34&#10;  Q 214.82 319.63 213.32 329.59&#10;  Q 212.17 337.20 212.16 346.67&#10;  Q 212.06 506.93 212.08 666.69&#10;  A 0.69 0.68 -83.6 0 1 211.25 667.36&#10;  Q 197.91 664.44 191.22 654.28&#10;  Q 189.93 652.31 189.56 650.16&#10;  Q 189.46 649.62 189.84 649.22&#10;  Q 192.35 646.58 193.28 643.51&#10;  Q 197.56 629.42 189.82 616.73&#10;  Q 180.60 601.59 161.52 591.90&#10;  Q 159.28 590.76 157.05 591.23&#10;  Q 156.52 591.35 156.52 591.89&#10;  Q 156.58 598.76 154.96 605.50&#10;  Q 152.61 615.25 150.62 623.81&#10;  Q 149.68 627.82 149.66 634.01&#10;  Q 149.62 643.47 155.99 650.18&#10;  Q 161.23 655.69 167.56 656.23&#10;  A 0.67 0.65 86.4 0 1 168.15 656.76&#10;  Q 168.69 659.49 169.88 662.16&#10;  Q 178.37 681.12 198.44 690.53&#10;  Q 206.53 694.32 211.97 694.57&#10;  Q 212.70 694.60 212.73 695.34&#10;  C 213.08 705.08 216.11 715.56 219.43 724.78&#10;  Q 230.90 756.66 256.50 778.15&#10;  C 265.50 785.70 276.25 791.74 287.08 796.32&#10;  Q 289.03 797.15 286.91 797.16&#10;  Q 285.82 797.17 284.77 797.20&#10;  Q 259.32 797.96 229.50 800.77&#10;  Q 218.27 801.83 209.82 804.19&#10;  Z&#10;  M 651.30 505.68&#10;  C 667.29 498.49 680.65 481.48 684.88 463.96&#10;  C 685.71 460.56 686.51 457.13 686.77 453.68&#10;  Q 688.34 432.34 677.23 414.40&#10;  C 668.69 400.63 654.23 390.61 638.92 387.09&#10;  C 620.64 382.89 600.15 386.37 585.02 397.55&#10;  C 565.81 411.73 557.35 433.77 560.23 457.20&#10;  Q 562.05 472.00 571.15 484.90&#10;  C 589.63 511.12 622.37 518.69 651.30 505.68&#10;  Z" fill="#fefeff"/>
<path d="M 283.73 413.55&#10;  Q 281.97 418.25 281.55 420.50&#10;  Q 278.71 435.70 278.59 452.00&#10;  Q 278.48 467.76 282.17 481.83&#10;  C 283.96 488.63 285.60 495.10 288.40 501.61&#10;  Q 295.96 519.21 306.19 532.94&#10;  Q 314.99 544.76 318.85 549.01&#10;  Q 347.38 580.45 387.73 593.54&#10;  Q 395.30 596.00 403.02 597.93&#10;  Q 409.83 599.62 414.74 595.50&#10;  Q 418.87 592.03 418.98 586.50&#10;  C 418.41 577.15 412.47 573.83 403.80 571.35&#10;  Q 395.44 568.96 387.28 565.76&#10;  C 375.27 561.04 364.01 554.07 353.92 546.34&#10;  C 346.67 540.79 340.13 533.79 334.16 526.69&#10;  C 317.79 507.25 306.52 483.32 305.10 458.19&#10;  Q 304.70 451.13 305.00 443.69&#10;  Q 305.29 436.70 306.84 428.59&#10;  Q 314.43 388.84 346.74 363.11&#10;  Q 354.19 357.18 363.27 352.55&#10;  Q 380.33 343.87 398.77 340.30&#10;  C 401.85 339.71 404.81 339.65 407.80 339.09&#10;  Q 409.96 338.68 412.26 338.62&#10;  Q 428.67 338.15 438.03 339.08&#10;  Q 451.86 340.45 468.74 345.41&#10;  Q 479.29 348.52 481.73 358.73&#10;  Q 482.79 363.17 480.92 366.85&#10;  Q 478.13 372.31 472.89 374.58&#10;  C 470.30 375.70 467.54 375.18 464.85 375.01&#10;  Q 464.29 374.97 464.04 375.46&#10;  L 461.23 380.86&#10;  Q 446.42 403.98 441.46 429.50&#10;  Q 437.07 452.13 439.78 477.36&#10;  Q 440.77 486.55 443.56 496.74&#10;  C 449.64 519.02 459.66 537.28 472.45 557.04&#10;  Q 481.34 570.76 478.70 585.86&#10;  C 474.25 611.27 451.05 627.60 427.03 630.81&#10;  Q 410.87 632.98 399.30 630.91&#10;  Q 384.39 628.25 377.16 625.82&#10;  Q 332.11 610.73 298.96 575.70&#10;  C 296.50 573.10 294.32 570.17 291.70 567.54&#10;  Q 282.84 556.78 277.69 548.79&#10;  Q 270.55 537.73 264.41 526.96&#10;  A 0.29 0.29 0.0 0 0 263.90 526.98&#10;  Q 259.77 535.59 256.49 545.16&#10;  Q 248.09 569.63 244.83 594.29&#10;  Q 243.72 602.74 243.53 614.19&#10;  Q 243.22 632.51 243.54 643.00&#10;  Q 244.18 664.42 251.40 688.37&#10;  Q 254.58 699.88 259.97 711.56&#10;  C 267.02 726.84 276.60 739.33 288.20 751.09&#10;  Q 305.75 768.90 329.64 779.31&#10;  Q 338.13 783.01 346.64 784.61&#10;  Q 352.41 785.69 364.42 785.66&#10;  Q 400.44 785.57 436.13 785.74&#10;  L 467.23 785.76&#10;  A 0.51 0.51 0.0 0 0 467.75 785.25&#10;  Q 467.76 777.43 467.81 768.21&#10;  Q 467.87 759.01 465.83 750.84&#10;  Q 462.03 735.63 450.66 722.41&#10;  Q 434.71 703.86 410.87 699.11&#10;  Q 398.38 696.62 386.74 698.05&#10;  Q 373.02 699.74 360.02 706.83&#10;  C 356.67 706.94 352.85 707.40 350.13 705.55&#10;  C 345.38 702.33 341.90 697.30 342.99 691.33&#10;  Q 344.13 685.05 349.65 681.10&#10;  Q 367.88 668.07 391.71 666.13&#10;  C 415.32 664.20 440.75 670.95 460.17 685.57&#10;  Q 486.67 705.53 496.69 738.02&#10;  Q 500.84 751.47 501.07 763.35&#10;  Q 501.27 773.47 500.96 785.08&#10;  A 0.69 0.69 0.0 0 0 501.65 785.79&#10;  L 530.87 785.74&#10;  L 565.68 785.72&#10;  Q 566.18 785.72 566.18 785.22&#10;  L 566.40 701.48&#10;  L 566.52 680.39&#10;  A 0.51 0.51 0.0 0 1 566.93 679.90&#10;  Q 583.94 676.78 599.44 671.43&#10;  Q 601.28 670.79 599.48 670.04&#10;  Q 587.78 665.21 575.93 659.59&#10;  C 571.05 657.27 566.86 652.91 567.10 647.18&#10;  C 567.31 641.92 570.71 637.11 576.00 636.49&#10;  C 579.87 636.04 582.96 638.44 586.26 639.97&#10;  Q 600.61 646.64 618.74 654.09&#10;  Q 626.00 657.07 646.85 662.76&#10;  Q 655.98 665.24 665.18 666.67&#10;  Q 668.24 667.14 671.26 667.94&#10;  C 673.95 668.65 676.78 668.50 679.56 668.93&#10;  C 689.07 670.38 698.54 670.37 708.11 670.70&#10;  Q 747.97 672.07 785.89 659.00&#10;  Q 786.45 658.80 786.46 659.39&#10;  Q 786.87 681.52 786.36 693.04&#10;  Q 784.90 726.03 766.88 753.55&#10;  C 757.59 767.72 745.07 781.30 730.32 789.86&#10;  Q 727.03 791.77 723.35 793.74&#10;  C 721.36 794.81 719.39 795.36 717.42 796.53&#10;  Q 716.64 796.99 717.55 796.90&#10;  C 720.23 796.64 723.05 797.20 725.82 797.31&#10;  Q 747.21 798.16 780.61 800.91&#10;  Q 791.81 801.83 799.42 804.51&#10;  Q 803.51 808.99 799.56 812.08&#10;  Q 796.37 814.58 791.25 815.26&#10;  Q 784.69 816.13 769.52 816.93&#10;  Q 763.98 817.22 758.50 817.57&#10;  Q 750.63 818.09 747.48 818.17&#10;  Q 740.90 818.33 734.82 818.73&#10;  C 723.89 819.45 712.89 819.83 702.01 820.24&#10;  Q 693.91 820.55 681.81 820.37&#10;  C 679.37 820.34 676.88 820.96 674.41 820.96&#10;  Q 613.08 820.94 551.74 821.24&#10;  Q 470.54 821.03 389.32 820.99&#10;  C 378.11 820.98 367.04 820.68 356.05 820.70&#10;  Q 348.46 820.72 338.00 820.27&#10;  Q 329.13 819.89 319.92 820.28&#10;  C 318.05 820.35 316.14 819.88 314.25 819.90&#10;  C 307.58 819.99 301.12 819.32 294.49 819.20&#10;  Q 264.40 818.61 234.86 816.73&#10;  Q 225.20 816.11 215.26 814.89&#10;  Q 212.54 814.55 210.05 812.47&#10;  Q 205.67 808.81 209.82 804.19&#10;  Q 218.27 801.83 229.50 800.77&#10;  Q 259.32 797.96 284.77 797.20&#10;  Q 285.82 797.17 286.91 797.16&#10;  Q 289.03 797.15 287.08 796.32&#10;  C 276.25 791.74 265.50 785.70 256.50 778.15&#10;  Q 230.90 756.66 219.43 724.78&#10;  C 216.11 715.56 213.08 705.08 212.73 695.34&#10;  Q 212.70 694.60 211.97 694.57&#10;  Q 206.53 694.32 198.44 690.53&#10;  Q 178.37 681.12 169.88 662.16&#10;  Q 168.69 659.49 168.15 656.76&#10;  A 0.67 0.65 86.4 0 0 167.56 656.23&#10;  Q 161.23 655.69 155.99 650.18&#10;  Q 149.62 643.47 149.66 634.01&#10;  Q 149.68 627.82 150.62 623.81&#10;  Q 152.61 615.25 154.96 605.50&#10;  Q 156.58 598.76 156.52 591.89&#10;  Q 156.52 591.35 157.05 591.23&#10;  Q 159.28 590.76 161.52 591.90&#10;  Q 180.60 601.59 189.82 616.73&#10;  Q 197.56 629.42 193.28 643.51&#10;  Q 192.35 646.58 189.84 649.22&#10;  Q 189.46 649.62 189.56 650.16&#10;  Q 189.93 652.31 191.22 654.28&#10;  Q 197.91 664.44 211.25 667.36&#10;  A 0.69 0.68 -83.6 0 0 212.08 666.69&#10;  Q 212.06 506.93 212.16 346.67&#10;  Q 212.17 337.20 213.32 329.59&#10;  Q 214.82 319.63 216.93 312.34&#10;  Q 226.88 278.03 256.09 254.35&#10;  Q 270.13 242.97 283.79 237.44&#10;  Q 300.54 230.68 318.07 228.03&#10;  C 325.31 226.93 332.85 227.14 340.25 227.13&#10;  Q 498.07 226.81 670.76 227.16&#10;  Q 683.06 227.19 689.95 228.44&#10;  Q 716.18 233.23 735.46 246.15&#10;  C 765.56 266.31 786.40 302.10 786.46 338.78&#10;  Q 786.58 408.23 786.36 478.69&#10;  C 786.32 490.98 783.14 504.24 776.66 514.50&#10;  C 773.80 519.02 767.46 526.30 761.23 524.17&#10;  C 755.93 522.37 754.97 518.02 755.17 512.69&#10;  Q 755.81 495.78 755.44 490.97&#10;  Q 753.75 469.20 750.35 452.48&#10;  Q 741.26 407.83 713.74 368.01&#10;  Q 707.84 359.47 701.56 352.14&#10;  Q 653.38 295.83 584.51 272.97&#10;  Q 568.55 267.67 546.02 263.54&#10;  C 529.50 260.51 511.44 260.05 493.96 260.84&#10;  Q 463.47 262.23 433.93 270.91&#10;  Q 405.50 279.27 378.14 292.47&#10;  Q 376.47 293.27 374.83 294.18&#10;  Q 373.91 294.69 374.96 294.61&#10;  C 375.94 294.53 376.87 293.81 377.82 293.57&#10;  Q 383.66 292.08 388.74 291.81&#10;  C 390.79 291.70 392.80 291.30 394.84 291.26&#10;  Q 409.43 290.96 422.97 291.18&#10;  C 429.34 291.29 434.23 297.01 433.88 303.53&#10;  C 433.60 308.63 428.27 311.87 423.57 311.79&#10;  Q 415.32 311.64 406.86 311.68&#10;  C 403.08 311.70 399.47 312.19 395.72 312.51&#10;  Q 393.54 312.70 391.30 313.14&#10;  Q 339.23 323.36 306.56 365.05&#10;  Q 303.89 368.46 297.38 379.33&#10;  Q 287.83 395.32 283.73 413.55&#10;  Z&#10;  M 646.86 689.17&#10;  Q 625.16 707.97 600.13 717.57&#10;  A 1.72 1.72 0.0 0 0 599.02 719.18&#10;  L 598.92 785.06&#10;  Q 598.92 785.74 599.60 785.74&#10;  L 616.61 785.76&#10;  L 649.78 785.72&#10;  Q 650.28 785.72 650.28 785.22&#10;  L 650.24 687.47&#10;  Q 650.24 683.49 648.48 687.06&#10;  Q 647.66 688.73 646.86 689.17&#10;  Z" fill="#000801"/>
<path d="M 461.23 380.86&#10;  Q 458.76 390.43 458.50 396.01&#10;  Q 457.97 407.04 459.81 421.52&#10;  Q 461.12 431.84 463.78 440.96&#10;  Q 474.60 477.98 499.05 506.59&#10;  Q 510.31 519.77 524.08 531.45&#10;  C 528.90 535.54 534.28 539.13 539.47 542.82&#10;  C 553.84 553.03 571.09 560.75 587.92 566.77&#10;  Q 588.97 567.14 590.50 567.93&#10;  Q 593.12 569.27 593.35 568.38&#10;  Q 593.21 573.70 595.96 579.50&#10;  C 609.18 607.43 632.16 625.90 661.25 635.78&#10;  Q 674.53 640.30 683.11 641.77&#10;  Q 670.23 650.58 655.69 659.18&#10;  Q 651.68 661.55 646.85 662.76&#10;  Q 626.00 657.07 618.74 654.09&#10;  Q 600.61 646.64 586.26 639.97&#10;  C 582.96 638.44 579.87 636.04 576.00 636.49&#10;  C 570.71 637.11 567.31 641.92 567.10 647.18&#10;  C 566.86 652.91 571.05 657.27 575.93 659.59&#10;  Q 587.78 665.21 599.48 670.04&#10;  Q 601.28 670.79 599.44 671.43&#10;  Q 583.94 676.78 566.93 679.90&#10;  A 0.51 0.51 0.0 0 0 566.52 680.39&#10;  L 566.40 701.48&#10;  Q 544.20 689.84 531.46 668.96&#10;  Q 530.88 668.01 530.88 669.12&#10;  L 530.87 785.74&#10;  L 501.65 785.79&#10;  A 0.69 0.69 0.0 0 1 500.96 785.08&#10;  Q 501.27 773.47 501.07 763.35&#10;  Q 500.84 751.47 496.69 738.02&#10;  Q 486.67 705.53 460.17 685.57&#10;  C 440.75 670.95 415.32 664.20 391.71 666.13&#10;  Q 367.88 668.07 349.65 681.10&#10;  Q 344.13 685.05 342.99 691.33&#10;  C 341.90 697.30 345.38 702.33 350.13 705.55&#10;  C 352.85 707.40 356.67 706.94 360.02 706.83&#10;  Q 350.69 713.50 348.42 715.68&#10;  Q 337.77 725.94 333.38 740.30&#10;  Q 332.85 742.03 332.70 743.88&#10;  A 0.32 0.32 0.0 0 0 333.22 744.15&#10;  C 344.43 735.10 358.54 728.31 372.99 727.17&#10;  C 384.89 726.24 397.88 727.60 408.06 733.36&#10;  C 422.19 741.36 432.46 754.51 435.22 770.57&#10;  Q 436.50 778.05 436.13 785.74&#10;  Q 400.44 785.57 364.42 785.66&#10;  Q 352.41 785.69 346.64 784.61&#10;  Q 338.13 783.01 329.64 779.31&#10;  Q 305.75 768.90 288.20 751.09&#10;  C 276.60 739.33 267.02 726.84 259.97 711.56&#10;  Q 254.58 699.88 251.40 688.37&#10;  Q 251.91 682.27 251.80 672.25&#10;  Q 251.65 659.17 254.51 644.99&#10;  Q 256.09 637.19 259.84 626.02&#10;  Q 263.84 614.15 266.81 607.32&#10;  Q 275.68 586.95 291.70 567.54&#10;  C 294.32 570.17 296.50 573.10 298.96 575.70&#10;  Q 332.11 610.73 377.16 625.82&#10;  Q 384.39 628.25 399.30 630.91&#10;  Q 410.87 632.98 427.03 630.81&#10;  C 451.05 627.60 474.25 611.27 478.70 585.86&#10;  Q 481.34 570.76 472.45 557.04&#10;  C 459.66 537.28 449.64 519.02 443.56 496.74&#10;  Q 440.77 486.55 439.78 477.36&#10;  Q 437.07 452.13 441.46 429.50&#10;  Q 446.42 403.98 461.23 380.86&#10;  Z" fill="#a3a3a3"/>
<path d="M 651.30 505.68&#10;  C 622.37 518.69 589.63 511.12 571.15 484.90&#10;  Q 562.05 472.00 560.23 457.20&#10;  C 557.35 433.77 565.81 411.73 585.02 397.55&#10;  C 600.15 386.37 620.64 382.89 638.92 387.09&#10;  C 654.23 390.61 668.69 400.63 677.23 414.40&#10;  Q 688.34 432.34 686.77 453.68&#10;  C 686.51 457.13 685.71 460.56 684.88 463.96&#10;  C 680.65 481.48 667.29 498.49 651.30 505.68&#10;  Z&#10;  M 667.88 432.03&#10;  A 22.53 22.53 0.0 0 0 645.35 409.50&#10;  A 22.53 22.53 0.0 0 0 622.82 432.03&#10;  A 22.53 22.53 0.0 0 0 645.35 454.56&#10;  A 22.53 22.53 0.0 0 0 667.88 432.03&#10;  Z" fill="#000801"/>
<circle r="22.53" cy="432.03" cx="645.35" fill="#fefeff"/>
<path d="M 283.73 413.55&#10;  Q 283.08 431.24 283.26 437.50&#10;  Q 283.56 447.35 286.37 460.99&#10;  Q 287.88 468.33 291.33 478.21&#10;  Q 294.40 486.99 297.94 494.05&#10;  Q 307.05 512.21 319.69 527.94&#10;  Q 329.07 539.62 344.28 552.34&#10;  C 359.26 564.86 376.15 573.52 395.45 580.06&#10;  Q 408.96 584.63 418.98 586.50&#10;  Q 418.87 592.03 414.74 595.50&#10;  Q 409.83 599.62 403.02 597.93&#10;  Q 395.30 596.00 387.73 593.54&#10;  Q 347.38 580.45 318.85 549.01&#10;  Q 314.99 544.76 306.19 532.94&#10;  Q 295.96 519.21 288.40 501.61&#10;  C 285.60 495.10 283.96 488.63 282.17 481.83&#10;  Q 278.48 467.76 278.59 452.00&#10;  Q 278.71 435.70 281.55 420.50&#10;  Q 281.97 418.25 283.73 413.55&#10;  Z" fill="#a3a3a3"/>
<path d="M 683.11 641.77&#10;  Q 674.53 640.30 661.25 635.78&#10;  C 632.16 625.90 609.18 607.43 595.96 579.50&#10;  Q 593.21 573.70 593.35 568.38&#10;  Q 594.57 553.47 607.25 549.57&#10;  C 615.40 547.06 622.25 550.82 626.21 558.00&#10;  Q 629.32 563.63 632.50 569.47&#10;  Q 634.53 573.20 637.24 576.38&#10;  Q 643.93 585.38 654.45 591.80&#10;  Q 668.35 600.30 681.96 603.79&#10;  Q 692.93 606.60 699.36 607.18&#10;  Q 706.28 607.80 714.18 607.71&#10;  Q 722.53 607.61 728.79 606.51&#10;  C 747.02 603.28 765.33 595.22 778.52 582.29&#10;  Q 801.34 559.92 810.90 528.71&#10;  Q 813.80 519.25 815.73 502.31&#10;  Q 817.05 494.73 817.16 491.13&#10;  Q 817.73 471.77 817.81 448.75&#10;  Q 817.84 442.17 822.72 437.79&#10;  C 826.71 434.22 831.97 433.37 837.22 433.50&#10;  Q 846.41 433.73 855.18 433.49&#10;  Q 865.23 433.23 868.66 434.74&#10;  Q 876.92 438.40 878.54 446.87&#10;  Q 879.13 449.96 879.05 454.62&#10;  Q 878.83 468.13 878.89 482.45&#10;  Q 878.93 492.29 877.56 501.81&#10;  Q 876.03 512.37 874.17 520.98&#10;  Q 870.65 537.27 862.97 554.32&#10;  Q 854.63 572.84 839.29 590.49&#10;  Q 830.17 600.99 819.47 609.25&#10;  Q 803.93 621.24 789.85 627.25&#10;  Q 755.44 641.93 722.75 644.24&#10;  Q 718.64 644.53 703.25 644.23&#10;  Q 693.00 644.03 683.11 641.77&#10;  Z" fill="#000801"/>
<path d="M 815.73 502.31&#10;  Q 813.80 519.25 810.90 528.71&#10;  Q 801.34 559.92 778.52 582.29&#10;  C 765.33 595.22 747.02 603.28 728.79 606.51&#10;  Q 722.53 607.61 714.18 607.71&#10;  Q 706.28 607.80 699.36 607.18&#10;  Q 692.93 606.60 681.96 603.79&#10;  Q 668.35 600.30 654.45 591.80&#10;  Q 643.93 585.38 637.24 576.38&#10;  Q 638.69 575.23 640.49 575.86&#10;  C 643.10 576.79 646.14 576.72 648.22 577.15&#10;  C 652.43 578.02 656.74 578.05 660.85 578.85&#10;  Q 663.83 579.43 666.86 579.58&#10;  Q 691.14 580.78 708.45 580.07&#10;  Q 717.98 579.67 733.25 576.22&#10;  Q 772.27 567.39 797.74 537.69&#10;  C 804.02 530.37 808.78 522.33 812.11 513.61&#10;  Q 813.79 509.21 815.73 502.31&#10;  Z" fill="#a3a3a3"/>
<path d="M 291.70 567.54&#10;  Q 275.68 586.95 266.81 607.32&#10;  Q 263.84 614.15 259.84 626.02&#10;  Q 256.09 637.19 254.51 644.99&#10;  Q 251.65 659.17 251.80 672.25&#10;  Q 251.91 682.27 251.40 688.37&#10;  Q 244.18 664.42 243.54 643.00&#10;  Q 243.22 632.51 243.53 614.19&#10;  Q 243.72 602.74 244.83 594.29&#10;  Q 248.09 569.63 256.49 545.16&#10;  Q 259.77 535.59 263.90 526.98&#10;  A 0.29 0.29 0.0 0 1 264.41 526.96&#10;  Q 270.55 537.73 277.69 548.79&#10;  Q 282.84 556.78 291.70 567.54&#10;  Z" fill="#fefeff"/>
<path d="M 566.40 701.48&#10;  L 566.18 785.22&#10;  Q 566.18 785.72 565.68 785.72&#10;  L 530.87 785.74&#10;  L 530.88 669.12&#10;  Q 530.88 668.01 531.46 668.96&#10;  Q 544.20 689.84 566.40 701.48&#10;  Z" fill="#fefeff"/>
<path d="M 616.61 785.76&#10;  Q 616.19 764.26 616.36 742.75&#10;  Q 616.39 738.43 617.53 735.75&#10;  Q 619.94 730.13 625.10 722.85&#10;  Q 636.39 706.93 646.86 689.17&#10;  Q 647.66 688.73 648.48 687.06&#10;  Q 650.24 683.49 650.24 687.47&#10;  L 650.28 785.22&#10;  Q 650.28 785.72 649.78 785.72&#10;  L 616.61 785.76&#10;  Z" fill="#fefeff"/>
<path d="M 646.86 689.17&#10;  Q 636.39 706.93 625.10 722.85&#10;  Q 619.94 730.13 617.53 735.75&#10;  Q 616.39 738.43 616.36 742.75&#10;  Q 616.19 764.26 616.61 785.76&#10;  L 599.60 785.74&#10;  Q 598.92 785.74 598.92 785.06&#10;  L 599.02 719.18&#10;  A 1.72 1.72 0.0 0 1 600.13 717.57&#10;  Q 625.16 707.97 646.86 689.17&#10;  Z" fill="#a3a3a3"/>
<path d="M 436.13 785.74&#10;  Q 436.50 778.05 435.22 770.57&#10;  C 432.46 754.51 422.19 741.36 408.06 733.36&#10;  C 397.88 727.60 384.89 726.24 372.99 727.17&#10;  C 358.54 728.31 344.43 735.10 333.22 744.15&#10;  A 0.32 0.32 0.0 0 1 332.70 743.88&#10;  Q 332.85 742.03 333.38 740.30&#10;  Q 337.77 725.94 348.42 715.68&#10;  Q 350.69 713.50 360.02 706.83&#10;  Q 373.02 699.74 386.74 698.05&#10;  Q 398.38 696.62 410.87 699.11&#10;  Q 434.71 703.86 450.66 722.41&#10;  Q 462.03 735.63 465.83 750.84&#10;  Q 467.87 759.01 467.81 768.21&#10;  Q 467.76 777.43 467.75 785.25&#10;  A 0.51 0.51 0.0 0 1 467.23 785.76&#10;  L 436.13 785.74&#10;  Z" fill="#fefeff"/>
<path d="M 209.82 804.19&#10;  Q 205.67 808.81 210.05 812.47&#10;  Q 212.54 814.55 215.26 814.89&#10;  Q 225.20 816.11 234.86 816.73&#10;  Q 264.40 818.61 294.49 819.20&#10;  C 301.12 819.32 307.58 819.99 314.25 819.90&#10;  C 316.14 819.88 318.05 820.35 319.92 820.28&#10;  Q 329.13 819.89 338.00 820.27&#10;  Q 348.46 820.72 356.05 820.70&#10;  C 367.04 820.68 378.11 820.98 389.32 820.99&#10;  Q 470.54 821.03 551.74 821.24&#10;  Q 552.64 821.51 553.56 821.71&#10;  Q 553.72 821.75 553.68 821.91&#10;  Q 553.65 822.05 553.45 822.11&#10;  Q 553.18 822.20 553.07 821.94&#10;  Q 552.96 821.66 552.73 821.91&#10;  Q 552.35 822.34 552.91 822.44&#10;  Q 558.33 823.45 563.30 822.98&#10;  Q 566.72 822.65 570.35 822.75&#10;  Q 570.42 822.75 570.46 822.69&#10;  Q 570.49 822.64 570.45 822.60&#10;  Q 570.17 822.33 570.56 822.32&#10;  Q 572.89 822.29 574.41 822.89&#10;  A 2.49 2.48 -79.6 0 1 576.00 825.21&#10;  L 576.00 831.50&#10;  Q 576.00 832.00 576.50 832.00&#10;  L 577.60 832.00&#10;  Q 578.16 832.00 578.29 832.54&#10;  Q 578.57 833.64 578.04 834.49&#10;  Q 577.75 834.95 578.25 835.16&#10;  Q 579.16 835.56 580.15 835.67&#10;  Q 580.31 835.69 580.42 835.80&#10;  Q 580.48 835.85 580.42 835.91&#10;  Q 580.12 836.23 580.56 836.19&#10;  Q 582.28 836.04 583.79 836.42&#10;  Q 551.76 836.51 519.74 836.72&#10;  Q 509.43 836.79 499.70 836.72&#10;  Q 467.42 836.51 435.47 836.48&#10;  C 415.23 836.46 395.02 835.74 374.74 835.71&#10;  C 358.50 835.68 342.20 834.80 326.01 834.68&#10;  Q 315.83 834.60 306.19 834.14&#10;  Q 286.22 833.19 264.15 832.54&#10;  Q 255.43 832.29 247.41 831.75&#10;  Q 238.97 831.19 230.72 830.61&#10;  C 227.17 830.37 223.47 829.83 219.89 829.69&#10;  Q 216.52 829.55 213.34 829.19&#10;  Q 210.31 828.85 206.79 828.60&#10;  Q 187.16 827.21 168.97 825.64&#10;  Q 151.59 824.14 134.25 820.13&#10;  Q 133.25 819.90 131.19 818.54&#10;  Q 128.95 817.07 130.82 815.25&#10;  C 131.89 814.21 133.93 813.34 135.37 813.01&#10;  Q 149.17 809.91 165.26 808.27&#10;  Q 187.35 806.02 209.82 804.19&#10;  Z" fill="#a3a3a3"/>
<path d="M 583.79 836.42&#10;  Q 582.28 836.04 580.56 836.19&#10;  Q 580.12 836.23 580.42 835.91&#10;  Q 580.48 835.85 580.42 835.80&#10;  Q 580.31 835.69 580.15 835.67&#10;  Q 579.16 835.56 578.25 835.16&#10;  Q 577.75 834.95 578.04 834.49&#10;  Q 578.57 833.64 578.29 832.54&#10;  Q 578.16 832.00 577.60 832.00&#10;  L 576.50 832.00&#10;  Q 576.00 832.00 576.00 831.50&#10;  L 576.00 825.21&#10;  A 2.49 2.48 -79.6 0 0 574.41 822.89&#10;  Q 572.89 822.29 570.56 822.32&#10;  Q 570.17 822.33 570.45 822.60&#10;  Q 570.49 822.64 570.46 822.69&#10;  Q 570.42 822.75 570.35 822.75&#10;  Q 566.72 822.65 563.30 822.98&#10;  Q 558.33 823.45 552.91 822.44&#10;  Q 552.35 822.34 552.73 821.91&#10;  Q 552.96 821.66 553.07 821.94&#10;  Q 553.18 822.20 553.45 822.11&#10;  Q 553.65 822.05 553.68 821.91&#10;  Q 553.72 821.75 553.56 821.71&#10;  Q 552.64 821.51 551.74 821.24&#10;  Q 613.08 820.94 674.41 820.96&#10;  C 676.88 820.96 679.37 820.34 681.81 820.37&#10;  Q 693.91 820.55 702.01 820.24&#10;  C 712.89 819.83 723.89 819.45 734.82 818.73&#10;  Q 740.90 818.33 747.48 818.17&#10;  Q 750.63 818.09 758.50 817.57&#10;  Q 763.98 817.22 769.52 816.93&#10;  Q 784.69 816.13 791.25 815.26&#10;  Q 796.37 814.58 799.56 812.08&#10;  Q 803.51 808.99 799.42 804.51&#10;  Q 806.06 804.80 812.49 805.13&#10;  Q 841.30 806.62 866.72 809.90&#10;  Q 870.49 810.39 880.70 812.48&#10;  C 882.53 812.86 885.81 814.02 886.99 815.09&#10;  C 890.61 818.37 883.27 820.60 881.07 821.02&#10;  Q 874.54 822.26 867.74 823.09&#10;  Q 851.53 825.05 834.98 826.44&#10;  Q 831.66 826.72 828.01 827.01&#10;  Q 808.34 828.58 788.25 830.05&#10;  Q 775.52 830.98 763.25 831.39&#10;  C 760.83 831.47 758.52 832.19 756.06 832.16&#10;  Q 751.83 832.09 747.25 832.32&#10;  C 722.24 833.57 695.49 834.76 669.00 835.22&#10;  Q 626.39 835.96 583.79 836.42&#10;  Z" fill="#a3a3a3"/>
</svg>